<svg width="53" height="18" viewBox="0 0 53 18" fill="none" xmlns="http://www.w3.org/2000/svg">
<path d="M7.30585 0.151123C7.09279 1.43635 6.8488 2.74906 6.6598 3.7525V3.80405H3.32646V3.7525L2.64605 0.151123H0L3.52578 17.5635H6.45018L6.48111 17.4192C7.62544 11.7594 8.81101 5.90714 9.96565 0.151123H7.30585ZM6.25774 6.2989C5.80069 8.92089 5.433 11.2989 5.12372 13.5738V13.6288H4.89348V13.5773L3.7354 6.22673H6.26805L6.25774 6.2989Z" fill="#0000FF"/>
<path d="M20.3612 17.5635V0.151123H12.7152V10.1683C12.7152 13.8625 12.289 15.0412 10.5674 16.0824L11.5468 17.9999C14.3303 16.7353 15.0107 15.0343 15.0107 9.40886V2.6013H17.7598V17.5635H20.3612Z" fill="#212121"/>
<path d="M31.845 12.1305C31.845 8.46728 30.4705 6.90371 27.2196 6.90371H25.9997V0.151123H23.4258V17.5635H27.2677C30.3605 17.5635 31.845 15.7869 31.845 12.1305ZM25.9997 15.1202V9.35045H27.0306C28.6629 9.35045 29.3296 10.1718 29.3296 12.1821C29.3296 14.1924 28.6079 15.1202 27.0925 15.1202H25.9997Z" fill="#212121"/>
<path d="M42.4501 12.1305C42.4501 8.46728 41.0755 6.90371 37.8246 6.90371H36.6081V2.6013H41.5807V0.151123H34.0205V17.5635H37.8624C40.9552 17.5635 42.4363 15.7869 42.4363 12.1305H42.4501ZM36.5944 15.1133V9.35045H37.6253C39.2611 9.35045 39.9277 10.1718 39.9277 12.1821C39.9277 13.4948 39.7044 14.8625 38.0446 15.0377C37.9288 15.0888 37.8034 15.1146 37.6769 15.1133H36.5944Z" fill="#212121"/>
<path d="M52.9757 4.57389C52.9757 1.37457 51.7214 0 48.797 0C45.3262 0 44.5977 2.50172 44.5977 4.59794V13.4021C44.5977 16.2543 46.0032 17.701 48.7695 17.701C51.6114 17.701 52.9929 16.2028 52.9929 13.1237L52.9757 4.57389ZM50.3502 13.2921C50.3502 14.5602 49.7695 15.2921 48.7523 15.2921C47.7351 15.2921 47.1819 14.6048 47.1819 13.4674V4.64949C47.1819 3.81787 47.388 2.42268 48.7798 2.42268C49.7901 2.42268 50.3502 3.10997 50.3502 4.37458V13.2921Z" fill="#212121"/>
</svg>
